<svg version="1.1" id="Layer_1" xmlns="http://www.w3.org/2000/svg" xmlns:xlink="http://www.w3.org/1999/xlink" x="0px" y="0px"
	 width="100%" viewBox="0 0 192 192" enable-background="new 0 0 192 192" xml:space="preserve">
<path fill="#000000" opacity="1.000000" stroke="none" 
	d="
M173.783279,144.314056 
	C175.716431,148.538986 178.243515,152.100113 179.336578,156.154861 
	C178.189270,157.755981 176.756897,157.335327 175.513382,157.225571 
	C150.657547,155.031982 127.228737,159.802429 105.337784,171.768051 
	C102.134979,173.518707 99.562218,173.334473 96.500656,171.609314 
	C81.337585,163.065033 64.980499,158.524994 47.649364,157.189240 
	C40.346462,156.626404 33.085720,155.615265 25.796328,157.261078 
	C24.864176,157.471542 23.787209,157.406189 22.958834,156.529251 
	C22.404776,154.338470 23.983423,152.797546 24.872458,151.092850 
	C29.723145,141.791824 34.582241,132.493439 39.590855,123.276955 
	C45.583401,112.249916 53.821678,108.546959 66.168373,111.095345 
	C77.813339,113.498901 83.535698,116.893959 93.963959,127.603218 
	C95.409126,127.201790 95.454742,125.854507 95.495903,124.811501 
	C95.717079,119.206642 97.555626,114.056816 99.724625,108.991280 
	C101.131729,105.705070 100.966934,102.618019 99.213882,99.435509 
	C97.796249,96.861931 96.095779,96.052864 93.132362,96.587120 
	C84.174683,98.202026 76.405678,94.401711 71.975708,86.846664 
	C70.156982,83.744949 70.832397,82.055389 74.118462,80.788956 
	C82.306351,77.633392 91.144302,80.195946 96.240341,87.447350 
	C97.955688,89.888214 99.537476,92.422943 101.180084,94.914925 
	C102.185318,86.641663 99.019592,79.935730 92.323196,75.584778 
	C90.679527,74.516815 89.280937,74.897751 87.618233,75.133453 
	C77.679939,76.542252 70.960670,72.355217 67.860046,63.189793 
	C66.604080,59.477165 67.095398,57.661358 71.593285,57.615028 
	C80.391754,57.524399 87.145508,60.625706 91.161354,68.740372 
	C92.374100,71.190933 94.052559,73.122459 97.181190,74.257362 
	C96.100853,69.103821 95.076660,64.315956 94.099548,59.518509 
	C93.555435,56.847004 91.667679,56.524704 89.327881,56.161644 
	C82.337357,55.076927 77.334122,49.653812 76.652763,43.276119 
	C76.260948,39.608620 77.797829,38.448971 81.200462,38.738018 
	C85.914597,39.138485 89.261765,41.739128 94.310532,49.225819 
	C96.948692,48.289349 96.229828,46.398132 95.923370,44.375618 
	C94.519272,35.109058 97.693985,29.594509 105.655884,26.453739 
	C108.826668,25.202944 110.366898,26.189936 111.148636,29.203575 
	C112.724541,35.278854 110.322098,41.590881 105.163788,44.927704 
	C97.365875,49.972038 95.734718,54.888382 99.066551,64.775787 
	C100.950653,59.803169 101.702911,54.664043 106.176369,51.918602 
	C110.591331,49.209064 115.294220,48.044334 120.325150,50.169319 
	C120.194946,58.261833 115.987808,63.436512 108.028694,65.467468 
	C100.463554,67.397903 99.728630,68.964592 102.821564,76.160408 
	C104.521088,80.114410 106.085548,84.126457 107.853012,88.460846 
	C109.016487,85.633362 109.384903,82.907104 109.834084,80.161057 
	C111.429344,70.408607 117.607025,65.677895 126.901833,66.709549 
	C129.450027,66.992386 130.401230,67.963249 130.090683,70.547577 
	C129.197403,77.981049 124.274940,84.045959 116.984932,84.988533 
	C112.366302,85.585701 110.701385,87.871277 109.957100,91.882637 
	C109.456505,94.580605 107.981964,97.106796 108.504524,100.128128 
	C116.646133,87.716209 122.321548,85.669632 131.804596,91.623604 
	C130.114441,99.126038 123.801277,104.282074 115.561485,104.230110 
	C111.909096,104.207085 109.986351,105.613159 107.962875,108.505867 
	C101.643646,117.539627 99.140656,127.185600 101.857147,138.646790 
	C109.027740,122.668198 121.224922,114.013329 137.795563,111.155426 
	C142.319016,110.375275 146.743210,110.629921 151.145584,111.749817 
	C151.920563,111.946960 152.859558,112.238655 153.321808,112.810707 
	C157.584152,118.085602 163.172470,122.220070 165.800934,128.920029 
	C167.855804,134.157913 170.961258,138.983643 173.783279,144.314056 
M56.895977,116.302719 
	C55.242886,116.360641 53.260262,116.068031 52.432034,117.838776 
	C49.229996,124.684708 46.202370,131.612213 42.556034,139.744278 
	C66.481216,138.522034 86.365379,144.805695 101.052750,163.656982 
	C116.095139,145.065460 135.810364,138.349411 159.637146,139.611221 
	C155.941467,131.495499 152.937424,124.870659 149.906128,118.258324 
	C148.950348,116.173477 147.021347,116.310532 145.178802,116.313423 
	C131.279236,116.335258 120.223000,122.188835 111.358673,132.670334 
	C105.207825,139.943314 103.032158,148.708786 101.537735,158.132156 
	C95.370102,135.109268 84.399109,117.424133 56.895977,116.302719 
M141.418304,148.565964 
	C149.392120,146.928726 157.413712,147.605927 165.473175,147.974533 
	C164.130875,147.496323 162.762787,147.075912 161.363419,146.884827 
	C154.269791,145.916260 147.198013,146.039307 140.191391,147.597656 
	C139.572800,147.735245 139.684967,148.295898 140.317123,148.526459 
	C140.467590,148.581345 140.644516,148.563751 141.418304,148.565964 
M58.903728,147.991379 
	C59.435909,147.995026 60.071899,148.647903 60.487366,147.752747 
	C55.703995,146.079803 47.599331,145.860672 42.869209,147.844742 
	C47.987370,147.844742 53.105526,147.844742 58.903728,147.991379 
z"/>
</svg>
